<?xml version="1.0" standalone="no"?><!DOCTYPE svg PUBLIC "-//W3C//DTD SVG 1.1//EN" "http://www.w3.org/Graphics/SVG/1.1/DTD/svg11.dtd"><svg t="1581346997585" class="icon" viewBox="0 0 1024 1024" version="1.1" xmlns="http://www.w3.org/2000/svg" p-id="824" xmlns:xlink="http://www.w3.org/1999/xlink" width="200" height="200"><defs><style type="text/css"></style></defs><path d="M512 172.8c187.04 0 339.2 152.16 339.2 339.2S699.04 851.2 512 851.2 172.8 699.03 172.8 512 324.97 172.8 512 172.8m0-76.8C282.25 96 96 282.25 96 512s186.25 416 416 416 416-186.25 416-416S741.75 96 512 96z" fill="#131414" p-id="825"></path><path d="M531.31 278.99c-92.43-2.84-151.21 46.22-175.93 126.24-0.03 0.1 0.23 0.23 0.22 0.33-1.34 3.71-2.37 7.59-2.37 11.75 0 19.25 15.61 34.86 34.86 34.86 15.13 0 27.69-9.76 32.52-23.23 0.03 0.01 0.33 0.08 0.33 0.08 14.05-63.91 45.58-82.75 100.14-81.23 46.75 3.15 72.47 26.54 77.14 70.14 3.08 29.62-17.94 60.02-63.13 91.16-42.07 29.62-62.35 66.28-60.76 109.88 0 0.09 0.16 0.12 0.16 0.21-0.01 0.31-0.18 0.57-0.18 0.88 0 16.82 13.63 30.46 30.46 30.46 15.53 0 27.85-11.8 29.72-26.82 0.09-0.01 0.59-0.05 0.59-0.05s-0.3 0.03-0.59 0.05c0.26-0.02 0.24-0.02 0.59-0.05-1.55-32.73 16.39-60.76 53.75-84.15 59.2-37.41 87.26-80.26 84.15-128.56-7.77-77.94-56-127.28-141.67-131.95zM504.7 745.14h-2.34c-20.66 0-37.4-16.75-37.4-37.4 0-20.66 16.75-37.4 37.4-37.4h2.34c20.66 0 37.4 16.75 37.4 37.4s-16.75 37.4-37.4 37.4z" fill="#131414" p-id="826"></path></svg>